<mxfile host="app.diagrams.net" agent="Mozilla/5.0 (Windows NT 10.0; Win64; x64) AppleWebKit/537.36 (KHTML, like Gecko) Chrome/127.0.0.0 Safari/537.36" version="24.7.7">
  <diagram id="C5RBs43oDa-KdzZeNtuy" name="Page-1">
    <mxGraphModel dx="2390" dy="1363" grid="1" gridSize="10" guides="1" tooltips="1" connect="1" arrows="1" fold="1" page="1" pageScale="1" pageWidth="827" pageHeight="1169" math="0" shadow="0">
      <root>
        <mxCell id="WIyWlLk6GJQsqaUBKTNV-0" />
        <mxCell id="WIyWlLk6GJQsqaUBKTNV-1" parent="WIyWlLk6GJQsqaUBKTNV-0" />
        <mxCell id="ShOOOcDjWmR2Zt9GWfa1-12" style="edgeStyle=orthogonalEdgeStyle;rounded=0;orthogonalLoop=1;jettySize=auto;html=1;entryX=0.5;entryY=0;entryDx=0;entryDy=0;editable=1;movable=1;resizable=1;rotatable=1;deletable=1;locked=0;connectable=1;strokeColor=default;" edge="1" parent="WIyWlLk6GJQsqaUBKTNV-1" source="WIyWlLk6GJQsqaUBKTNV-3" target="ShOOOcDjWmR2Zt9GWfa1-1">
          <mxGeometry relative="1" as="geometry" />
        </mxCell>
        <mxCell id="WIyWlLk6GJQsqaUBKTNV-3" value="Potansiyel müşteriler tespit edilir" style="rounded=1;whiteSpace=wrap;html=1;fontSize=12;glass=0;strokeWidth=1;shadow=0;editable=1;movable=1;resizable=1;rotatable=1;deletable=1;locked=0;connectable=1;strokeColor=default;" parent="WIyWlLk6GJQsqaUBKTNV-1" vertex="1">
          <mxGeometry x="114" y="165" width="160" height="70" as="geometry" />
        </mxCell>
        <mxCell id="ShOOOcDjWmR2Zt9GWfa1-13" style="edgeStyle=orthogonalEdgeStyle;rounded=0;orthogonalLoop=1;jettySize=auto;html=1;entryX=0.5;entryY=0;entryDx=0;entryDy=0;editable=1;movable=1;resizable=1;rotatable=1;deletable=1;locked=0;connectable=1;strokeColor=default;" edge="1" parent="WIyWlLk6GJQsqaUBKTNV-1" source="ShOOOcDjWmR2Zt9GWfa1-0" target="WIyWlLk6GJQsqaUBKTNV-3">
          <mxGeometry relative="1" as="geometry" />
        </mxCell>
        <mxCell id="ShOOOcDjWmR2Zt9GWfa1-0" value="START" style="ellipse;whiteSpace=wrap;html=1;editable=1;movable=1;resizable=1;rotatable=1;deletable=1;locked=0;connectable=1;strokeColor=default;" vertex="1" parent="WIyWlLk6GJQsqaUBKTNV-1">
          <mxGeometry x="134" y="45" width="120" height="80" as="geometry" />
        </mxCell>
        <mxCell id="ShOOOcDjWmR2Zt9GWfa1-11" style="edgeStyle=orthogonalEdgeStyle;rounded=0;orthogonalLoop=1;jettySize=auto;html=1;entryX=0.5;entryY=0;entryDx=0;entryDy=0;editable=1;movable=1;resizable=1;rotatable=1;deletable=1;locked=0;connectable=1;strokeColor=default;" edge="1" parent="WIyWlLk6GJQsqaUBKTNV-1" source="ShOOOcDjWmR2Zt9GWfa1-1" target="ShOOOcDjWmR2Zt9GWfa1-2">
          <mxGeometry relative="1" as="geometry" />
        </mxCell>
        <mxCell id="ShOOOcDjWmR2Zt9GWfa1-1" value="Müşteri bilgileri ve iletişim kanalları veri olarak sisteme kaydedilir" style="rounded=1;whiteSpace=wrap;html=1;fontSize=12;glass=0;strokeWidth=1;shadow=0;editable=1;movable=1;resizable=1;rotatable=1;deletable=1;locked=0;connectable=1;strokeColor=default;" vertex="1" parent="WIyWlLk6GJQsqaUBKTNV-1">
          <mxGeometry x="114" y="285" width="160" height="70" as="geometry" />
        </mxCell>
        <mxCell id="ShOOOcDjWmR2Zt9GWfa1-10" style="edgeStyle=orthogonalEdgeStyle;rounded=0;orthogonalLoop=1;jettySize=auto;html=1;entryX=0.5;entryY=0;entryDx=0;entryDy=0;editable=1;movable=1;resizable=1;rotatable=1;deletable=1;locked=0;connectable=1;strokeColor=default;" edge="1" parent="WIyWlLk6GJQsqaUBKTNV-1" source="ShOOOcDjWmR2Zt9GWfa1-2" target="ShOOOcDjWmR2Zt9GWfa1-3">
          <mxGeometry relative="1" as="geometry" />
        </mxCell>
        <mxCell id="ShOOOcDjWmR2Zt9GWfa1-2" value="Müşteri ile iletişime geçilir ve potansiyel satış miktarları konusunda analiz ve tahminler yapılır" style="rounded=1;whiteSpace=wrap;html=1;fontSize=12;glass=0;strokeWidth=1;shadow=0;editable=1;movable=1;resizable=1;rotatable=1;deletable=1;locked=0;connectable=1;strokeColor=default;" vertex="1" parent="WIyWlLk6GJQsqaUBKTNV-1">
          <mxGeometry x="114" y="405" width="160" height="70" as="geometry" />
        </mxCell>
        <mxCell id="ShOOOcDjWmR2Zt9GWfa1-19" style="edgeStyle=orthogonalEdgeStyle;rounded=0;orthogonalLoop=1;jettySize=auto;html=1;entryX=0.5;entryY=0;entryDx=0;entryDy=0;" edge="1" parent="WIyWlLk6GJQsqaUBKTNV-1" source="ShOOOcDjWmR2Zt9GWfa1-3" target="ShOOOcDjWmR2Zt9GWfa1-16">
          <mxGeometry relative="1" as="geometry" />
        </mxCell>
        <mxCell id="ShOOOcDjWmR2Zt9GWfa1-3" value="Müşteriye ürün kataloğu hakkında bilgilendirme yapılır" style="rounded=1;whiteSpace=wrap;html=1;fontSize=12;glass=0;strokeWidth=1;shadow=0;editable=1;movable=1;resizable=1;rotatable=1;deletable=1;locked=0;connectable=1;strokeColor=default;" vertex="1" parent="WIyWlLk6GJQsqaUBKTNV-1">
          <mxGeometry x="114" y="525" width="160" height="70" as="geometry" />
        </mxCell>
        <mxCell id="ShOOOcDjWmR2Zt9GWfa1-21" style="edgeStyle=orthogonalEdgeStyle;rounded=0;orthogonalLoop=1;jettySize=auto;html=1;entryX=0.5;entryY=0;entryDx=0;entryDy=0;" edge="1" parent="WIyWlLk6GJQsqaUBKTNV-1" source="ShOOOcDjWmR2Zt9GWfa1-4" target="ShOOOcDjWmR2Zt9GWfa1-5">
          <mxGeometry relative="1" as="geometry" />
        </mxCell>
        <mxCell id="ShOOOcDjWmR2Zt9GWfa1-4" value="Yapılan analizler,&lt;br&gt;teklifler ve görüşme detayları fırsat adı atında veri olarak sisteme kaydedilir.&amp;nbsp;&amp;nbsp;" style="rounded=1;whiteSpace=wrap;html=1;fontSize=12;glass=0;strokeWidth=1;shadow=0;editable=1;movable=1;resizable=1;rotatable=1;deletable=1;locked=0;connectable=1;strokeColor=default;" vertex="1" parent="WIyWlLk6GJQsqaUBKTNV-1">
          <mxGeometry x="114" y="769" width="160" height="73" as="geometry" />
        </mxCell>
        <mxCell id="ShOOOcDjWmR2Zt9GWfa1-22" style="edgeStyle=orthogonalEdgeStyle;rounded=0;orthogonalLoop=1;jettySize=auto;html=1;entryX=0.5;entryY=0;entryDx=0;entryDy=0;" edge="1" parent="WIyWlLk6GJQsqaUBKTNV-1" source="ShOOOcDjWmR2Zt9GWfa1-5" target="ShOOOcDjWmR2Zt9GWfa1-14">
          <mxGeometry relative="1" as="geometry" />
        </mxCell>
        <mxCell id="ShOOOcDjWmR2Zt9GWfa1-31" style="edgeStyle=orthogonalEdgeStyle;rounded=0;orthogonalLoop=1;jettySize=auto;html=1;entryX=0;entryY=0.5;entryDx=0;entryDy=0;" edge="1" parent="WIyWlLk6GJQsqaUBKTNV-1" source="ShOOOcDjWmR2Zt9GWfa1-5" target="ShOOOcDjWmR2Zt9GWfa1-30">
          <mxGeometry relative="1" as="geometry" />
        </mxCell>
        <mxCell id="ShOOOcDjWmR2Zt9GWfa1-5" value="&lt;div&gt;&lt;br&gt;&lt;/div&gt;Müşteri ilgili zamanda geri&amp;nbsp;&lt;div&gt;dönüş yaptı mı?&lt;br&gt;&lt;br&gt;&lt;/div&gt;" style="rhombus;whiteSpace=wrap;html=1;editable=1;movable=1;resizable=1;rotatable=1;deletable=1;locked=0;connectable=1;strokeColor=default;" vertex="1" parent="WIyWlLk6GJQsqaUBKTNV-1">
          <mxGeometry x="84" y="895" width="220" height="110" as="geometry" />
        </mxCell>
        <mxCell id="ShOOOcDjWmR2Zt9GWfa1-48" style="edgeStyle=orthogonalEdgeStyle;rounded=0;orthogonalLoop=1;jettySize=auto;html=1;entryX=0;entryY=0.5;entryDx=0;entryDy=0;" edge="1" parent="WIyWlLk6GJQsqaUBKTNV-1" source="ShOOOcDjWmR2Zt9GWfa1-14" target="ShOOOcDjWmR2Zt9GWfa1-24">
          <mxGeometry relative="1" as="geometry" />
        </mxCell>
        <mxCell id="ShOOOcDjWmR2Zt9GWfa1-14" value="Yapılan geri dönüş detayları ve satış durumu sisteme veri olarak kaydedilir" style="rounded=1;whiteSpace=wrap;html=1;fontSize=12;glass=0;strokeWidth=1;shadow=0;editable=1;movable=1;resizable=1;rotatable=1;deletable=1;locked=0;connectable=1;strokeColor=default;" vertex="1" parent="WIyWlLk6GJQsqaUBKTNV-1">
          <mxGeometry x="114" y="1055" width="160" height="70" as="geometry" />
        </mxCell>
        <mxCell id="ShOOOcDjWmR2Zt9GWfa1-20" style="edgeStyle=orthogonalEdgeStyle;rounded=0;orthogonalLoop=1;jettySize=auto;html=1;" edge="1" parent="WIyWlLk6GJQsqaUBKTNV-1" source="ShOOOcDjWmR2Zt9GWfa1-16">
          <mxGeometry relative="1" as="geometry">
            <mxPoint x="194" y="765" as="targetPoint" />
          </mxGeometry>
        </mxCell>
        <mxCell id="ShOOOcDjWmR2Zt9GWfa1-16" value="Müşteri satış konusunda olumluysa teklif yapılır" style="rounded=1;whiteSpace=wrap;html=1;fontSize=12;glass=0;strokeWidth=1;shadow=0;editable=1;movable=1;resizable=1;rotatable=1;deletable=1;locked=0;connectable=1;strokeColor=default;" vertex="1" parent="WIyWlLk6GJQsqaUBKTNV-1">
          <mxGeometry x="114" y="645" width="160" height="70" as="geometry" />
        </mxCell>
        <mxCell id="ShOOOcDjWmR2Zt9GWfa1-23" value="EVET" style="text;html=1;align=center;verticalAlign=middle;resizable=0;points=[];autosize=1;strokeColor=none;fillColor=none;" vertex="1" parent="WIyWlLk6GJQsqaUBKTNV-1">
          <mxGeometry x="144" y="1015" width="50" height="30" as="geometry" />
        </mxCell>
        <mxCell id="ShOOOcDjWmR2Zt9GWfa1-24" value="Müşteri satış konusunda olumluysa satış raporu sistem üzerinden oluşturulur" style="rounded=1;whiteSpace=wrap;html=1;fontSize=12;glass=0;strokeWidth=1;shadow=0;editable=1;movable=1;resizable=1;rotatable=1;deletable=1;locked=0;connectable=1;strokeColor=default;" vertex="1" parent="WIyWlLk6GJQsqaUBKTNV-1">
          <mxGeometry x="364" y="1055" width="160" height="70" as="geometry" />
        </mxCell>
        <mxCell id="ShOOOcDjWmR2Zt9GWfa1-46" style="edgeStyle=orthogonalEdgeStyle;rounded=0;orthogonalLoop=1;jettySize=auto;html=1;entryX=0;entryY=0.5;entryDx=0;entryDy=0;" edge="1" parent="WIyWlLk6GJQsqaUBKTNV-1" source="ShOOOcDjWmR2Zt9GWfa1-30" target="ShOOOcDjWmR2Zt9GWfa1-32">
          <mxGeometry relative="1" as="geometry" />
        </mxCell>
        <mxCell id="ShOOOcDjWmR2Zt9GWfa1-30" value="Müşteriye soğuk arama yapılır" style="rounded=1;whiteSpace=wrap;html=1;fontSize=12;glass=0;strokeWidth=1;shadow=0;editable=1;movable=1;resizable=1;rotatable=1;deletable=1;locked=0;connectable=1;strokeColor=default;" vertex="1" parent="WIyWlLk6GJQsqaUBKTNV-1">
          <mxGeometry x="364" y="915" width="160" height="70" as="geometry" />
        </mxCell>
        <mxCell id="ShOOOcDjWmR2Zt9GWfa1-47" style="edgeStyle=orthogonalEdgeStyle;rounded=0;orthogonalLoop=1;jettySize=auto;html=1;entryX=0.5;entryY=0;entryDx=0;entryDy=0;" edge="1" parent="WIyWlLk6GJQsqaUBKTNV-1" source="ShOOOcDjWmR2Zt9GWfa1-32" target="ShOOOcDjWmR2Zt9GWfa1-24">
          <mxGeometry relative="1" as="geometry">
            <Array as="points">
              <mxPoint x="664" y="1015" />
              <mxPoint x="444" y="1015" />
            </Array>
          </mxGeometry>
        </mxCell>
        <mxCell id="ShOOOcDjWmR2Zt9GWfa1-32" value="Yapılan görüşme detayları sisteme veri olarak&amp;nbsp;&lt;div&gt;kaydedilir&lt;/div&gt;" style="rounded=1;whiteSpace=wrap;html=1;fontSize=12;glass=0;strokeWidth=1;shadow=0;editable=1;movable=1;resizable=1;rotatable=1;deletable=1;locked=0;connectable=1;strokeColor=default;" vertex="1" parent="WIyWlLk6GJQsqaUBKTNV-1">
          <mxGeometry x="584" y="915" width="160" height="70" as="geometry" />
        </mxCell>
        <mxCell id="ShOOOcDjWmR2Zt9GWfa1-45" value="HAYIR" style="text;html=1;align=center;verticalAlign=middle;resizable=0;points=[];autosize=1;strokeColor=none;fillColor=none;" vertex="1" parent="WIyWlLk6GJQsqaUBKTNV-1">
          <mxGeometry x="299" y="915" width="60" height="30" as="geometry" />
        </mxCell>
        <mxCell id="ShOOOcDjWmR2Zt9GWfa1-49" value="Satın alım raporu muhasebeye iletilir" style="ellipse;whiteSpace=wrap;html=1;editable=1;movable=1;resizable=1;rotatable=1;deletable=1;locked=0;connectable=1;strokeColor=default;" vertex="1" parent="WIyWlLk6GJQsqaUBKTNV-1">
          <mxGeometry x="584" y="1045" width="160" height="80" as="geometry" />
        </mxCell>
        <mxCell id="ShOOOcDjWmR2Zt9GWfa1-50" style="edgeStyle=orthogonalEdgeStyle;rounded=0;orthogonalLoop=1;jettySize=auto;html=1;entryX=0.011;entryY=0.57;entryDx=0;entryDy=0;entryPerimeter=0;" edge="1" parent="WIyWlLk6GJQsqaUBKTNV-1" source="ShOOOcDjWmR2Zt9GWfa1-24" target="ShOOOcDjWmR2Zt9GWfa1-49">
          <mxGeometry relative="1" as="geometry" />
        </mxCell>
      </root>
    </mxGraphModel>
  </diagram>
</mxfile>
